<svg width="32" height="32" version="1.1" xmlns="http://www.w3.org/2000/svg" desc="Created with imagetracer.js version 1.2.6" ><path fill="rgb(26,31,39)" stroke="rgb(26,31,39)" stroke-width="1" opacity="0.996078431372549" d="M 15.5 4 L 28 10 L 27.5 25 L 27 11 L 17.5 6 L 14.5 6 L 6 11.5 L 6 24.5 L 4 25 L 4 10.5 L 5.5 10 L 15.5 4 Z " /><path fill="rgb(26,31,39)" stroke="rgb(26,31,39)" stroke-width="1" opacity="0.996078431372549" d="M 15.5 9 L 24 13.5 L 24 26.5 L 22.5 28 L 22 13 L 14.5 11 L 10 14.5 L 9.5 28 L 9 12 L 15.5 9 Z " /><path fill="rgb(26,31,39)" stroke="rgb(26,31,39)" stroke-width="1" opacity="0.996078431372549" d="M 14.5 14 Q 18.3 13.3 19 15.5 L 18.5 30 L 18 16.5 L 16.5 15 L 14 16.5 L 13.5 30 L 13 15.5 L 14.5 14 Z " /><path fill="rgb(242,227,0)" stroke="rgb(242,227,0)" stroke-width="1" opacity="0.996078431372549" d="M 24.5 5 L 30 8 Q 31.3 11.3 26.5 10 L 23 8 L 24.5 5 Z " /><path fill="rgb(242,227,0)" stroke="rgb(242,227,0)" stroke-width="1" opacity="0.996078431372549" d="M 21.5 8 L 26 11.5 L 23.5 13 L 19 10.5 L 21 10 L 21.5 8 Z " /><path fill="rgb(242,227,0)" stroke="rgb(242,227,0)" stroke-width="1" opacity="0.996078431372549" d="M 19 13 L 22 13.5 L 19 15 L 19 13 Z " /><path fill="rgb(242,227,0)" stroke="rgb(242,227,0)" stroke-width="1" opacity="0.996078431372549" d="M 16 22 L 18 22.5 L 18 29.5 L 16 30.5 L 16 22 Z " /><path fill="rgb(242,227,0)" stroke="rgb(242,227,0)" stroke-width="1" opacity="0.996078431372549" d="M 19 24 L 22 25.5 L 20.5 29 L 19 29 L 19 24 Z " /><path fill="rgb(0,0,0)" stroke="rgb(0,0,0)" stroke-width="1" opacity="0" d="M 0 0 L 32 0 L 32 32 L 0 32 L 0 0 Z M 16 1 L 3 8 L 1 10 L 1 23 L 16 31 L 30 24 L 31 23 L 31 10 L 16 1 Z " /><path fill="rgb(0,84,170)" stroke="rgb(0,84,170)" stroke-width="1" opacity="0.996078431372549" d="M 9.5 4 Q 12.1 3.2 11 6.5 Q 8.2 10.8 2 10 Q 0.9 7.3 3.5 8 L 9.5 4 Z " /><path fill="rgb(0,84,170)" stroke="rgb(0,84,170)" stroke-width="1" opacity="0.996078431372549" d="M 9.5 9 L 12 10.5 L 8.5 13 L 6 11.5 L 9.5 9 Z " /><path fill="rgb(0,84,170)" stroke="rgb(0,84,170)" stroke-width="1" opacity="0.996078431372549" d="M 30.5 9 L 31 22.5 L 28 24 L 28 10.5 L 29.5 10 L 30.5 9 Z " /><path fill="rgb(0,84,170)" stroke="rgb(0,84,170)" stroke-width="1" opacity="0.996078431372549" d="M 26.5 11 L 27 16.5 L 26 16.5 L 25 12.5 L 26.5 11 Z " /><path fill="rgb(221,222,223)" stroke="rgb(221,222,223)" stroke-width="1" opacity="0.996078431372549" d="M 1.5 9 L 4 10 L 3.5 12 L 1 11 L 1.5 9 Z " /><path fill="rgb(221,222,223)" stroke="rgb(221,222,223)" stroke-width="1" opacity="0.996078431372549" d="M 6.5 12 L 9 13.5 L 8.5 27 L 8 14.5 L 6.5 12 Z " /><path fill="rgb(0,111,151)" stroke="rgb(0,111,151)" stroke-width="1" opacity="0.996078431372549" d="M 11 3 Q 14.3 1.9 13 6 Q 9.7 7.1 11 3 Z " /><path fill="rgb(0,111,151)" stroke="rgb(0,111,151)" stroke-width="1" opacity="0.996078431372549" d="M 11 8 L 14 9.5 Q 12.5 12.5 11 9.5 L 11 8 Z " /><path fill="rgb(0,111,151)" stroke="rgb(0,111,151)" stroke-width="1" opacity="0.996078431372549" d="M 13.5 12 L 14 15 Q 11.3 16.1 12 13.5 L 13.5 12 Z " /><path fill="rgb(0,111,151)" stroke="rgb(0,111,151)" stroke-width="1" opacity="0.996078431372549" d="M 24.5 12 L 27 19.5 L 24 17.5 L 24.5 12 Z " /><path fill="rgb(186,205,17)" stroke="rgb(186,205,17)" stroke-width="1" opacity="0.9686274509803922" d="M 20 4 L 24 5.5 L 21.5 7 L 20 4 Z " /><path fill="rgb(186,205,17)" stroke="rgb(186,205,17)" stroke-width="1" opacity="0.9686274509803922" d="M 19.5 7 L 21 10 L 18 9.5 L 19.5 7 Z " /><path fill="rgb(186,205,17)" stroke="rgb(186,205,17)" stroke-width="1" opacity="0.9686274509803922" d="M 18 12 L 20 12.5 L 18.5 15 L 18 12 Z " /><path fill="rgb(186,205,17)" stroke="rgb(186,205,17)" stroke-width="1" opacity="0.9686274509803922" d="M 16.5 19 L 18 22 Q 14.5 23.1 16.5 19 Z " /><path fill="rgb(186,205,17)" stroke="rgb(186,205,17)" stroke-width="1" opacity="0.9686274509803922" d="M 19.5 21 L 22 24.5 L 20.5 24 Q 17.4 24.8 19.5 21 Z " /><path fill="rgb(230,230,230)" stroke="rgb(230,230,230)" stroke-width="1" opacity="0.996078431372549" d="M 1 11 L 4 12.5 L 4 23.5 L 2.5 24 L 1 22.5 L 1 11 Z " /><path fill="rgb(230,230,230)" stroke="rgb(230,230,230)" stroke-width="1" opacity="0.996078431372549" d="M 6.5 13 L 8 14.5 L 8 26 L 6 25.5 L 6.5 13 Z " /><path fill="rgb(230,230,230)" stroke="rgb(230,230,230)" stroke-width="1" opacity="0.996078431372549" d="M 10.5 14 L 13 15 L 13 28.5 L 11.5 29 L 10 27.5 L 10.5 14 Z " /><path fill="rgb(230,230,230)" stroke="rgb(230,230,230)" stroke-width="1" opacity="0.996078431372549" d="M 14.5 16 L 16 17.5 L 16 30.5 L 14 29.5 L 14.5 16 Z " /><path fill="rgb(115,189,49)" stroke="rgb(115,189,49)" stroke-width="1" opacity="0.996078431372549" d="M 18.5 2 L 21 3.5 L 19.5 6 L 17 4.5 L 18.5 2 Z " /><path fill="rgb(115,189,49)" stroke="rgb(115,189,49)" stroke-width="1" opacity="0.996078431372549" d="M 17.5 6 L 19 8.5 L 17 9.5 L 17.5 6 Z " /><path fill="rgb(115,189,49)" stroke="rgb(115,189,49)" stroke-width="1" opacity="0.996078431372549" d="M 17.5 11 L 18 14 Q 15.3 15.1 16 12.5 L 17.5 11 Z " /><path fill="rgb(115,189,49)" stroke="rgb(115,189,49)" stroke-width="1" opacity="0.996078431372549" d="M 16.5 15 L 18 19.5 L 16 18.5 L 16.5 15 Z " /><path fill="rgb(115,189,49)" stroke="rgb(115,189,49)" stroke-width="1" opacity="0.996078431372549" d="M 19.5 19 L 22 22.5 L 19 20.5 L 19.5 19 Z " /><path fill="rgb(0,155,117)" stroke="rgb(0,155,117)" stroke-width="1" opacity="0.996078431372549" d="M 15.5 1 L 16 3.5 L 13 5 Q 11.5 1.2 14.5 2 L 15.5 1 Z " /><path fill="rgb(0,155,117)" stroke="rgb(0,155,117)" stroke-width="1" opacity="0.996078431372549" d="M 14.5 6 Q 17.1 5.2 16 8.5 Q 14.5 11.5 13 8.5 L 14.5 6 Z " /><path fill="rgb(0,155,117)" stroke="rgb(0,155,117)" stroke-width="1" opacity="0.996078431372549" d="M 14 11 Q 17.3 9.9 16 14 Q 12.7 15.1 14 11 Z " /><path fill="rgb(0,155,117)" stroke="rgb(0,155,117)" stroke-width="1" opacity="0.996078431372549" d="M 19 15 Q 23.5 13.3 22 18.5 L 20.5 18 Q 17.5 18.7 19 15 Z " /><path fill="rgb(0,155,117)" stroke="rgb(0,155,117)" stroke-width="1" opacity="0.996078431372549" d="M 24.5 18 Q 28 19 27 24.5 L 24 22.5 L 24.5 18 Z " /><path fill="rgb(49,179,78)" stroke="rgb(49,179,78)" stroke-width="1" opacity="0.996078431372549" d="M 16.5 1 L 18 4 Q 14.5 5.1 16.5 1 Z " /><path fill="rgb(49,179,78)" stroke="rgb(49,179,78)" stroke-width="1" opacity="0.996078431372549" d="M 16.5 6 L 17 8.5 L 16 8.5 L 16.5 6 Z " /><path fill="rgb(49,179,78)" stroke="rgb(49,179,78)" stroke-width="1" opacity="0.996078431372549" d="M 19.5 18 L 22 19.5 L 21.5 21 L 19.5 18 Z " /><path fill="rgb(49,179,78)" stroke="rgb(49,179,78)" stroke-width="1" opacity="0.996078431372549" d="M 24.5 23 L 26 25.5 L 24 26.5 L 24.5 23 Z " /></svg>