<svg width="1600" height="1492" version="1.1" xmlns="http://www.w3.org/2000/svg" desc="Created with imagetracer.js version 1.2.6" ><path fill="rgb(0,0,0)" stroke="rgb(0,0,0)" stroke-width="1" opacity="0" d="M 1.5 0 L 1598.5 0 L 1600 1.5 L 1600 1492 L 0 1492 L 0 1.5 L 1.5 0 Z M 437 268 L 436 269 L 377 269 L 376 270 L 368 270 L 357 274 L 348 280 L 342 291 L 338 308 L 338 322 L 337 323 L 337 374 L 336 375 L 336 405 L 337 406 L 337 450 L 336 451 L 336 670 L 337 671 L 337 684 L 336 685 L 336 1260 L 337 1261 L 337 1275 L 340 1288 L 348 1302 L 361 1310 L 369 1312 L 379 1312 L 380 1313 L 754 1313 L 755 1312 L 783 1312 L 784 1311 L 810 1310 L 811 1309 L 828 1308 L 829 1307 L 836 1307 L 837 1306 L 861 1303 L 866 1301 L 897 1295 L 931 1284 L 952 1276 L 988 1259 L 1020 1241 L 1038 1229 Q 1062 1212 1084 1191 L 1087 1187 L 1090 1185 Q 1153 1122 1192 1034 L 1213 975 L 1226 922 L 1233 882 L 1235 854 L 1236 853 L 1236 840 L 1237 839 L 1237 820 L 1238 819 L 1238 750 L 1237 749 L 1237 733 L 1236 732 L 1236 721 L 1235 720 L 1233 692 L 1222 632 L 1206 576 L 1189 533 L 1173 500 L 1160 478 Q 1131 430 1093 393 L 1052 356 Q 1026 338 999 323 L 975 311 L 941 297 L 911 288 L 880 281 L 863 279 L 845 275 L 839 275 L 838 274 L 822 273 L 821 272 L 795 271 L 794 270 L 767 270 L 766 269 L 437 268 Z " /><path fill="rgb(0,0,0)" stroke="rgb(0,0,0)" stroke-width="1" opacity="0" d="M 587.5 459 L 742.5 459 L 743.5 460 L 767.5 461 L 768.5 462 L 775.5 462 L 776.5 463 L 783.5 463 L 795.5 466 L 800.5 466 L 835.5 477 L 863.5 490 L 893.5 510 L 918 533.5 Q 936.8 554.2 951 579.5 L 971 623.5 L 981 652.5 L 990 696.5 L 994 743.5 L 995 744.5 L 995 758.5 L 996 759.5 L 996 806.5 L 995 807.5 L 995 824.5 L 994 825.5 L 994 838.5 L 993 839.5 L 991 867.5 L 982 914.5 L 973 946.5 L 958 983.5 L 941 1014.5 Q 923.9 1039.9 901.5 1060 Q 882.5 1077.5 859.5 1091 L 823.5 1107 L 794.5 1115 L 771.5 1118 L 770.5 1119 L 759.5 1119 L 758.5 1120 L 704.5 1121 L 703.5 1122 L 624.5 1122 L 623.5 1121 L 611.5 1121 L 610.5 1122 L 600.5 1122 L 599.5 1121 L 585.5 1121 L 579 1117.5 L 577 1110.5 L 577 1040.5 L 578 1039.5 L 578 989.5 L 577 988.5 L 577 973.5 L 578 972.5 L 578 708.5 L 577 707.5 L 577 682.5 L 578 681.5 L 578 539.5 L 577 538.5 L 577 476.5 L 578 475.5 L 578 463.5 L 580.5 461 L 587.5 459 Z " /><path fill="rgb(254,254,254)" stroke="rgb(254,254,254)" stroke-width="1" opacity="0.9764705882352941" d="M 436.5 268 L 765.5 269 L 766.5 270 L 793.5 270 L 794.5 271 L 820.5 272 L 821.5 273 L 837.5 274 L 838.5 275 L 844.5 275 L 862.5 279 L 879.5 281 L 910.5 288 L 940.5 297 L 974.5 311 L 998.5 323 Q 1026.5 338 1051.5 356 L 1093 392.5 Q 1131 430.5 1160 477.5 L 1173 499.5 L 1189 532.5 L 1206 575.5 L 1222 631.5 L 1233 691.5 L 1235 719.5 L 1236 720.5 L 1236 731.5 L 1237 732.5 L 1237 748.5 L 1238 749.5 L 1238 818.5 L 1237 819.5 L 1237 838.5 L 1236 839.5 L 1236 852.5 L 1235 853.5 L 1233 881.5 L 1226 921.5 L 1213 974.5 L 1192 1033.5 Q 1153.3 1121.8 1089.5 1185 L 1087 1186.5 L 1083.5 1191 Q 1062.1 1211.6 1037.5 1229 L 1019.5 1241 L 987.5 1259 L 951.5 1276 L 930.5 1284 L 896.5 1295 L 865.5 1301 L 860.5 1303 L 836.5 1306 L 835.5 1307 L 828.5 1307 L 827.5 1308 L 810.5 1309 L 809.5 1310 L 783.5 1311 L 782.5 1312 L 754.5 1312 L 753.5 1313 L 379.5 1313 L 378.5 1312 L 368.5 1312 L 360.5 1310 L 348 1302 L 340 1287.5 L 337 1274.5 L 337 1260.5 L 336 1259.5 L 336 684.5 L 337 683.5 L 337 670.5 L 336 669.5 L 336 450.5 L 337 449.5 L 337 405.5 L 336 404.5 L 336 374.5 L 337 373.5 L 337 322.5 L 338 321.5 L 338 307.5 L 342 290.5 L 348 280 L 356.5 274 L 367.5 270 L 375.5 270 L 376.5 269 L 435.5 269 L 436.5 268 Z M 588 459 L 581 461 L 578 464 L 578 476 L 577 477 L 577 539 L 578 540 L 578 682 L 577 683 L 577 708 L 578 709 L 578 973 L 577 974 L 577 989 L 578 990 L 578 1040 L 577 1041 L 577 1111 L 579 1118 L 586 1121 L 600 1121 L 601 1122 L 611 1122 L 612 1121 L 624 1121 L 625 1122 L 704 1122 L 705 1121 L 759 1120 L 760 1119 L 771 1119 L 772 1118 L 795 1115 L 824 1107 L 860 1091 Q 883 1078 902 1060 Q 924 1040 941 1015 L 958 984 L 973 947 L 982 915 L 991 868 L 993 840 L 994 839 L 994 826 L 995 825 L 995 808 L 996 807 L 996 760 L 995 759 L 995 745 L 994 744 L 990 697 L 981 653 L 971 624 L 951 580 Q 937 554 918 534 L 894 510 L 864 490 L 836 477 L 801 466 L 796 466 L 784 463 L 777 463 L 776 462 L 769 462 L 768 461 L 744 460 L 743 459 L 588 459 Z " /></svg>