<svg version="1.1" id="Layer_1" xmlns="http://www.w3.org/2000/svg" xmlns:xlink="http://www.w3.org/1999/xlink" x="0px" y="0px"
	 width="100%" viewBox="0 0 194 54" enable-background="new 0 0 194 54" xml:space="preserve">
<path fill="#FBFBFB" opacity="1.000000" stroke="none" 
	d="
M128.000000,55.000000 
	C85.333344,55.000000 43.166687,55.000000 1.000023,55.000000 
	C1.000015,37.000015 1.000015,19.000029 1.000008,1.000032 
	C65.666634,1.000021 130.333267,1.000021 194.999939,1.000011 
	C194.999954,18.999966 194.999954,36.999931 194.999969,54.999947 
	C172.833328,55.000000 150.666672,55.000000 128.000000,55.000000 
M158.224808,30.072134 
	C156.198517,23.768064 154.172226,17.463995 152.136581,11.130804 
	C149.901718,11.130804 147.931702,11.130804 145.615982,11.130804 
	C143.811325,22.305698 142.019608,33.400394 140.183197,44.771893 
	C142.393799,44.771893 144.314774,44.771893 146.451920,44.771893 
	C147.583176,38.199947 148.688766,31.777075 149.794342,25.354206 
	C150.048264,25.379553 150.302185,25.404898 150.556091,25.430244 
	C152.656479,31.874605 154.756866,38.318966 156.841217,44.714142 
	C158.997086,44.714142 160.914627,44.714142 162.688370,44.714142 
	C164.897522,37.999756 167.005157,31.593895 169.561447,23.824415 
	C170.939148,31.877747 172.061432,38.438148 173.143387,44.762737 
	C175.505310,44.762737 177.285645,44.762737 179.379044,44.762737 
	C177.539886,33.382339 175.747604,22.291965 173.968338,11.282095 
	C171.481110,11.282095 169.386612,11.282095 167.425919,11.282095 
	C164.898056,18.947443 162.469620,26.311325 159.782623,34.459232 
	C159.126190,32.612530 158.800568,31.696486 158.224808,30.072134 
M6.692818,11.002214 
	C6.146265,11.271626 5.123741,11.537572 5.121751,11.810949 
	C5.041373,22.850140 5.053160,33.889999 5.053160,44.963642 
	C9.350420,44.963642 13.005962,45.109257 16.646183,44.934933 
	C25.696447,44.501514 31.268158,38.634274 31.797434,29.177410 
	C32.302414,20.154648 26.989182,12.815139 18.569880,11.466463 
	C14.996521,10.894052 11.293719,11.129720 6.692818,11.002214 
M41.549011,44.997375 
	C46.322659,44.997375 51.096306,44.997375 56.063942,44.997375 
	C55.950344,42.662914 55.865551,40.920341 55.765564,38.865616 
	C51.630127,38.865616 47.854652,38.865616 44.048370,38.865616 
	C44.048370,35.785961 44.048370,33.052670 44.048370,29.814386 
	C48.166973,29.814386 52.057297,29.814386 55.832222,29.814386 
	C55.832222,27.674204 55.832222,26.049410 55.832222,23.935488 
	C51.773857,23.935488 47.863743,23.935488 44.102528,23.935488 
	C44.102528,21.363998 44.102528,19.292105 44.102528,16.898102 
	C48.164982,16.898102 51.937202,16.898102 55.778938,16.898102 
	C55.778938,14.812891 55.778938,13.076015 55.778938,11.252434 
	C49.635639,11.252434 43.713112,11.252434 37.577621,11.252434 
	C37.577621,21.813528 37.506027,32.127232 37.706718,42.435635 
	C37.723694,43.307629 39.562557,44.144150 41.549011,44.997375 
M99.930016,24.649094 
	C95.909279,24.294210 91.888542,23.939327 87.965988,23.593111 
	C87.965988,21.359426 87.965988,19.400013 87.965988,16.945518 
	C92.018105,16.945518 95.928986,16.945518 99.713318,16.945518 
	C99.713318,14.704566 99.713318,12.966773 99.713318,11.318090 
	C93.516136,11.318090 87.606674,11.318090 81.717461,11.318090 
	C81.717461,22.601793 81.717461,33.569431 81.717461,44.745689 
	C82.807587,44.836262 83.775627,44.981651 84.744331,44.986252 
	C89.707649,45.009838 94.671143,44.997166 99.810699,44.997166 
	C99.810699,42.869968 99.810699,41.132690 99.810699,38.896858 
	C95.732666,38.896858 91.826111,38.896858 88.131371,38.896858 
	C88.131371,35.654270 88.131371,32.915386 88.131371,29.852829 
	C92.223572,29.852829 95.996727,29.852829 99.992569,29.852829 
	C99.992569,28.202114 99.992569,26.897665 99.930016,24.649094 
M117.362480,35.823620 
	C115.938011,41.340466 113.420685,41.516724 107.733574,36.294868 
	C106.179832,37.235481 104.562737,38.214447 102.858772,39.246002 
	C103.734169,40.455074 104.252937,41.317841 104.910919,42.056610 
	C109.184608,46.855011 116.649078,47.415722 120.941536,43.291462 
	C125.070129,39.324642 124.818504,32.931770 120.216225,28.208908 
	C118.367302,26.311533 116.009964,24.862097 114.379128,22.814468 
	C113.035271,21.127176 112.421837,18.858141 111.484711,16.846907 
	C113.670494,17.346766 115.855225,17.851301 118.043365,18.340618 
	C118.319229,18.402309 118.612984,18.383972 119.165329,18.420238 
	C120.307564,17.355444 121.581177,16.168182 122.865913,14.970549 
	C116.909744,9.214120 111.128738,8.463318 106.910217,12.677312 
	C102.924149,16.659101 103.960899,22.308411 109.658844,27.802744 
	C112.153404,30.208164 114.611336,32.651566 117.362480,35.823620 
M70.339569,10.990764 
	C66.383392,10.990764 62.427212,10.990764 58.466671,10.990764 
	C58.466671,13.256030 58.466671,14.986152 58.466671,16.805080 
	C60.490898,16.961147 62.237759,17.095829 64.384430,17.261335 
	C64.384430,26.670219 64.384430,35.750637 64.384430,44.765820 
	C66.592812,44.765820 68.363823,44.765820 70.583679,44.765820 
	C70.583679,35.453815 70.583679,26.378874 70.583679,17.251118 
	C72.768196,17.050400 74.509850,16.890373 76.106300,16.743689 
	C76.106300,14.609703 76.106300,12.874160 76.106300,10.990764 
	C74.268600,10.990764 72.772545,10.990764 70.339569,10.990764 
M129.171661,37.405159 
	C129.171661,39.854740 129.171661,42.304325 129.171661,44.852959 
	C131.482468,44.852959 133.273880,44.852959 135.263611,44.852959 
	C135.263611,33.600143 135.263611,22.508522 135.263611,11.278883 
	C133.231903,11.278883 131.354401,11.278883 129.171661,11.278883 
	C129.171661,19.856031 129.171661,28.143124 129.171661,37.405159 
M186.795883,44.941132 
	C188.233734,43.919331 190.006943,43.121864 190.923660,41.751469 
	C191.235550,41.285229 189.632874,38.828800 188.451355,38.304893 
	C187.558975,37.909195 184.896332,39.065784 184.853378,39.663227 
	C184.736115,41.293999 185.588531,42.994503 186.795883,44.941132 
z"/>
<path fill="#080808" opacity="1.000000" stroke="none" 
	d="
M158.349884,30.426289 
	C158.800568,31.696486 159.126190,32.612530 159.782623,34.459232 
	C162.469620,26.311325 164.898056,18.947443 167.425919,11.282095 
	C169.386612,11.282095 171.481110,11.282095 173.968338,11.282095 
	C175.747604,22.291965 177.539886,33.382339 179.379044,44.762737 
	C177.285645,44.762737 175.505310,44.762737 173.143387,44.762737 
	C172.061432,38.438148 170.939148,31.877747 169.561447,23.824415 
	C167.005157,31.593895 164.897522,37.999756 162.688370,44.714142 
	C160.914627,44.714142 158.997086,44.714142 156.841217,44.714142 
	C154.756866,38.318966 152.656479,31.874605 150.556091,25.430244 
	C150.302185,25.404898 150.048264,25.379553 149.794342,25.354206 
	C148.688766,31.777075 147.583176,38.199947 146.451920,44.771893 
	C144.314774,44.771893 142.393799,44.771893 140.183197,44.771893 
	C142.019608,33.400394 143.811325,22.305698 145.615982,11.130804 
	C147.931702,11.130804 149.901718,11.130804 152.136581,11.130804 
	C154.172226,17.463995 156.198517,23.768064 158.349884,30.426289 
z"/>
<path fill="#050505" opacity="1.000000" stroke="none" 
	d="
M7.171282,11.000172 
	C11.293719,11.129720 14.996521,10.894052 18.569880,11.466463 
	C26.989182,12.815139 32.302414,20.154648 31.797434,29.177410 
	C31.268158,38.634274 25.696447,44.501514 16.646183,44.934933 
	C13.005962,45.109257 9.350420,44.963642 5.053160,44.963642 
	C5.053160,33.889999 5.041373,22.850140 5.121751,11.810949 
	C5.123741,11.537572 6.146265,11.271626 7.171282,11.000172 
M22.869539,36.293671 
	C26.194977,31.418787 26.314117,26.193626 23.468960,21.296019 
	C20.876499,16.833401 16.216581,16.703644 11.510353,17.166431 
	C11.510353,24.506695 11.510353,31.679831 11.510353,39.968079 
	C15.529197,38.811176 18.917645,37.835747 22.869539,36.293671 
z"/>
<path fill="#030303" opacity="1.000000" stroke="none" 
	d="
M41.052017,44.997261 
	C39.562557,44.144150 37.723694,43.307629 37.706718,42.435635 
	C37.506027,32.127232 37.577621,21.813528 37.577621,11.252434 
	C43.713112,11.252434 49.635639,11.252434 55.778938,11.252434 
	C55.778938,13.076015 55.778938,14.812891 55.778938,16.898102 
	C51.937202,16.898102 48.164982,16.898102 44.102528,16.898102 
	C44.102528,19.292105 44.102528,21.363998 44.102528,23.935488 
	C47.863743,23.935488 51.773857,23.935488 55.832222,23.935488 
	C55.832222,26.049410 55.832222,27.674204 55.832222,29.814386 
	C52.057297,29.814386 48.166973,29.814386 44.048370,29.814386 
	C44.048370,33.052670 44.048370,35.785961 44.048370,38.865616 
	C47.854652,38.865616 51.630127,38.865616 55.765564,38.865616 
	C55.865551,40.920341 55.950344,42.662914 56.063942,44.997375 
	C51.096306,44.997375 46.322659,44.997375 41.052017,44.997261 
z"/>
<path fill="#030303" opacity="1.000000" stroke="none" 
	d="
M99.961288,25.121155 
	C99.992569,26.897665 99.992569,28.202114 99.992569,29.852829 
	C95.996727,29.852829 92.223572,29.852829 88.131371,29.852829 
	C88.131371,32.915386 88.131371,35.654270 88.131371,38.896858 
	C91.826111,38.896858 95.732666,38.896858 99.810699,38.896858 
	C99.810699,41.132690 99.810699,42.869968 99.810699,44.997166 
	C94.671143,44.997166 89.707649,45.009838 84.744331,44.986252 
	C83.775627,44.981651 82.807587,44.836262 81.717461,44.745689 
	C81.717461,33.569431 81.717461,22.601793 81.717461,11.318090 
	C87.606674,11.318090 93.516136,11.318090 99.713318,11.318090 
	C99.713318,12.966773 99.713318,14.704566 99.713318,16.945518 
	C95.928986,16.945518 92.018105,16.945518 87.965988,16.945518 
	C87.965988,19.400013 87.965988,21.359426 87.965988,23.593111 
	C91.888542,23.939327 95.909279,24.294210 99.961288,25.121155 
z"/>
<path fill="#0B0B0B" opacity="1.000000" stroke="none" 
	d="
M117.224190,35.450668 
	C114.611336,32.651566 112.153404,30.208164 109.658844,27.802744 
	C103.960899,22.308411 102.924149,16.659101 106.910217,12.677312 
	C111.128738,8.463318 116.909744,9.214120 122.865913,14.970549 
	C121.581177,16.168182 120.307564,17.355444 119.165329,18.420238 
	C118.612984,18.383972 118.319229,18.402309 118.043365,18.340618 
	C115.855225,17.851301 113.670494,17.346766 111.484711,16.846909 
	C112.421837,18.858141 113.035271,21.127176 114.379128,22.814468 
	C116.009964,24.862097 118.367302,26.311533 120.216225,28.208908 
	C124.818504,32.931770 125.070129,39.324642 120.941536,43.291462 
	C116.649078,47.415722 109.184608,46.855011 104.910919,42.056610 
	C104.252937,41.317841 103.734169,40.455074 102.858772,39.246002 
	C104.562737,38.214447 106.179832,37.235481 107.733574,36.294868 
	C113.420685,41.516724 115.938011,41.340466 117.224190,35.450668 
z"/>
<path fill="#090909" opacity="1.000000" stroke="none" 
	d="
M70.808029,10.990764 
	C72.772545,10.990764 74.268600,10.990764 76.106300,10.990764 
	C76.106300,12.874160 76.106300,14.609703 76.106300,16.743689 
	C74.509850,16.890373 72.768196,17.050400 70.583679,17.251118 
	C70.583679,26.378874 70.583679,35.453815 70.583679,44.765820 
	C68.363823,44.765820 66.592812,44.765820 64.384430,44.765820 
	C64.384430,35.750637 64.384430,26.670219 64.384430,17.261335 
	C62.237759,17.095829 60.490898,16.961147 58.466671,16.805080 
	C58.466671,14.986152 58.466671,13.256030 58.466671,10.990764 
	C62.427212,10.990764 66.383392,10.990764 70.808029,10.990764 
z"/>
<path fill="#0C0C0C" opacity="1.000000" stroke="none" 
	d="
M129.171661,36.917686 
	C129.171661,28.143124 129.171661,19.856031 129.171661,11.278883 
	C131.354401,11.278883 133.231903,11.278883 135.263611,11.278883 
	C135.263611,22.508522 135.263611,33.600143 135.263611,44.852959 
	C133.273880,44.852959 131.482468,44.852959 129.171661,44.852959 
	C129.171661,42.304325 129.171661,39.854740 129.171661,36.917686 
z"/>
<path fill="#0C0C0C" opacity="1.000000" stroke="none" 
	d="
M186.426361,44.804260 
	C185.588531,42.994503 184.736115,41.293999 184.853378,39.663227 
	C184.896332,39.065784 187.558975,37.909195 188.451355,38.304893 
	C189.632874,38.828800 191.235550,41.285229 190.923660,41.751469 
	C190.006943,43.121864 188.233734,43.919331 186.426361,44.804260 
z"/>
<path fill="#F6F6F6" opacity="1.000000" stroke="none" 
	d="
M22.587816,36.576992 
	C18.917645,37.835747 15.529197,38.811176 11.510353,39.968079 
	C11.510353,31.679831 11.510353,24.506695 11.510353,17.166431 
	C16.216581,16.703644 20.876499,16.833401 23.468960,21.296019 
	C26.314117,26.193626 26.194977,31.418787 22.587816,36.576992 
z"/>
</svg>